ISO-10303-21;
HEADER;
/* Generated by software containing ST-Developer
 * from STEP Tools, Inc. (www.steptools.com) 
 */

FILE_DESCRIPTION(
/* description */ (''),
/* implementation_level */ '2;1');

FILE_NAME(
/* name */ '/Users/Twmaster/Downloads/aluminum-corner.step',
/* time_stamp */ '2018-08-09T23:45:23-05:00',
/* author */ ('twmasterZ5S42'),
/* organization */ (''),
/* preprocessor_version */ 'ST-DEVELOPER v17',
/* originating_system */ 'Autodesk Translation Framework v7.1.0.215',
/* authorisation */ '');

FILE_SCHEMA (('AUTOMOTIVE_DESIGN { 1 0 10303 214 3 1 1 }'));
ENDSEC;

DATA;
#10=MECHANICAL_DESIGN_GEOMETRIC_PRESENTATION_REPRESENTATION('',(#13),#411);
#11=SHAPE_REPRESENTATION_RELATIONSHIP('SRR','None',#418,#12);
#12=ADVANCED_BREP_SHAPE_REPRESENTATION('',(#14),#410);
#13=STYLED_ITEM('',(#427),#14);
#14=MANIFOLD_SOLID_BREP('Body1',#243);
#15=FACE_BOUND('',#55,.T.);
#16=FACE_BOUND('',#56,.T.);
#17=FACE_BOUND('',#57,.T.);
#18=FACE_BOUND('',#58,.T.);
#19=FACE_BOUND('',#59,.T.);
#20=FACE_BOUND('',#61,.T.);
#21=FACE_BOUND('',#62,.T.);
#22=FACE_BOUND('',#63,.T.);
#23=FACE_BOUND('',#64,.T.);
#24=FACE_BOUND('',#65,.T.);
#25=PLANE('',#272);
#26=PLANE('',#273);
#27=PLANE('',#274);
#28=PLANE('',#275);
#29=PLANE('',#276);
#30=PLANE('',#277);
#31=PLANE('',#278);
#32=FACE_OUTER_BOUND('',#44,.T.);
#33=FACE_OUTER_BOUND('',#45,.T.);
#34=FACE_OUTER_BOUND('',#46,.T.);
#35=FACE_OUTER_BOUND('',#47,.T.);
#36=FACE_OUTER_BOUND('',#48,.T.);
#37=FACE_OUTER_BOUND('',#49,.T.);
#38=FACE_OUTER_BOUND('',#50,.T.);
#39=FACE_OUTER_BOUND('',#51,.T.);
#40=FACE_OUTER_BOUND('',#52,.T.);
#41=FACE_OUTER_BOUND('',#53,.T.);
#42=FACE_OUTER_BOUND('',#54,.T.);
#43=FACE_OUTER_BOUND('',#60,.T.);
#44=EDGE_LOOP('',(#166,#167,#168,#169));
#45=EDGE_LOOP('',(#170,#171,#172,#173));
#46=EDGE_LOOP('',(#174,#175,#176,#177));
#47=EDGE_LOOP('',(#178,#179,#180,#181));
#48=EDGE_LOOP('',(#182,#183,#184,#185));
#49=EDGE_LOOP('',(#186,#187,#188,#189));
#50=EDGE_LOOP('',(#190,#191,#192,#193));
#51=EDGE_LOOP('',(#194,#195,#196,#197));
#52=EDGE_LOOP('',(#198,#199,#200,#201));
#53=EDGE_LOOP('',(#202,#203,#204,#205));
#54=EDGE_LOOP('',(#206,#207,#208,#209,#210));
#55=EDGE_LOOP('',(#211));
#56=EDGE_LOOP('',(#212));
#57=EDGE_LOOP('',(#213));
#58=EDGE_LOOP('',(#214));
#59=EDGE_LOOP('',(#215));
#60=EDGE_LOOP('',(#216,#217,#218,#219,#220));
#61=EDGE_LOOP('',(#221));
#62=EDGE_LOOP('',(#222));
#63=EDGE_LOOP('',(#223));
#64=EDGE_LOOP('',(#224));
#65=EDGE_LOOP('',(#225));
#66=LINE('',#350,#86);
#67=LINE('',#356,#87);
#68=LINE('',#362,#88);
#69=LINE('',#368,#89);
#70=LINE('',#374,#90);
#71=LINE('',#379,#91);
#72=LINE('',#381,#92);
#73=LINE('',#383,#93);
#74=LINE('',#384,#94);
#75=LINE('',#387,#95);
#76=LINE('',#389,#96);
#77=LINE('',#390,#97);
#78=LINE('',#393,#98);
#79=LINE('',#395,#99);
#80=LINE('',#396,#100);
#81=LINE('',#399,#101);
#82=LINE('',#401,#102);
#83=LINE('',#402,#103);
#84=LINE('',#404,#104);
#85=LINE('',#405,#105);
#86=VECTOR('',#285,2.55);
#87=VECTOR('',#292,2.55);
#88=VECTOR('',#299,2.65);
#89=VECTOR('',#306,2.55);
#90=VECTOR('',#313,2.55);
#91=VECTOR('',#318,10.);
#92=VECTOR('',#319,10.);
#93=VECTOR('',#320,10.);
#94=VECTOR('',#321,10.);
#95=VECTOR('',#324,10.);
#96=VECTOR('',#325,10.);
#97=VECTOR('',#326,10.);
#98=VECTOR('',#329,10.);
#99=VECTOR('',#330,10.);
#100=VECTOR('',#331,10.);
#101=VECTOR('',#334,10.);
#102=VECTOR('',#335,10.);
#103=VECTOR('',#336,10.);
#104=VECTOR('',#339,10.);
#105=VECTOR('',#340,10.);
#106=CIRCLE('',#258,2.55);
#107=CIRCLE('',#259,2.55);
#108=CIRCLE('',#261,2.55);
#109=CIRCLE('',#262,2.55);
#110=CIRCLE('',#264,2.65);
#111=CIRCLE('',#265,2.65);
#112=CIRCLE('',#267,2.55);
#113=CIRCLE('',#268,2.55);
#114=CIRCLE('',#270,2.55);
#115=CIRCLE('',#271,2.55);
#116=VERTEX_POINT('',#347);
#117=VERTEX_POINT('',#349);
#118=VERTEX_POINT('',#353);
#119=VERTEX_POINT('',#355);
#120=VERTEX_POINT('',#359);
#121=VERTEX_POINT('',#361);
#122=VERTEX_POINT('',#365);
#123=VERTEX_POINT('',#367);
#124=VERTEX_POINT('',#371);
#125=VERTEX_POINT('',#373);
#126=VERTEX_POINT('',#377);
#127=VERTEX_POINT('',#378);
#128=VERTEX_POINT('',#380);
#129=VERTEX_POINT('',#382);
#130=VERTEX_POINT('',#386);
#131=VERTEX_POINT('',#388);
#132=VERTEX_POINT('',#392);
#133=VERTEX_POINT('',#394);
#134=VERTEX_POINT('',#398);
#135=VERTEX_POINT('',#400);
#136=EDGE_CURVE('',#116,#116,#106,.T.);
#137=EDGE_CURVE('',#116,#117,#66,.T.);
#138=EDGE_CURVE('',#117,#117,#107,.T.);
#139=EDGE_CURVE('',#118,#118,#108,.T.);
#140=EDGE_CURVE('',#118,#119,#67,.T.);
#141=EDGE_CURVE('',#119,#119,#109,.T.);
#142=EDGE_CURVE('',#120,#120,#110,.T.);
#143=EDGE_CURVE('',#120,#121,#68,.T.);
#144=EDGE_CURVE('',#121,#121,#111,.T.);
#145=EDGE_CURVE('',#122,#122,#112,.T.);
#146=EDGE_CURVE('',#122,#123,#69,.T.);
#147=EDGE_CURVE('',#123,#123,#113,.T.);
#148=EDGE_CURVE('',#124,#124,#114,.T.);
#149=EDGE_CURVE('',#124,#125,#70,.T.);
#150=EDGE_CURVE('',#125,#125,#115,.T.);
#151=EDGE_CURVE('',#126,#127,#71,.T.);
#152=EDGE_CURVE('',#126,#128,#72,.T.);
#153=EDGE_CURVE('',#129,#128,#73,.T.);
#154=EDGE_CURVE('',#127,#129,#74,.T.);
#155=EDGE_CURVE('',#127,#130,#75,.T.);
#156=EDGE_CURVE('',#131,#129,#76,.T.);
#157=EDGE_CURVE('',#130,#131,#77,.T.);
#158=EDGE_CURVE('',#130,#132,#78,.T.);
#159=EDGE_CURVE('',#133,#131,#79,.T.);
#160=EDGE_CURVE('',#132,#133,#80,.T.);
#161=EDGE_CURVE('',#132,#134,#81,.T.);
#162=EDGE_CURVE('',#135,#133,#82,.T.);
#163=EDGE_CURVE('',#134,#135,#83,.T.);
#164=EDGE_CURVE('',#134,#126,#84,.T.);
#165=EDGE_CURVE('',#128,#135,#85,.T.);
#166=ORIENTED_EDGE('',*,*,#136,.F.);
#167=ORIENTED_EDGE('',*,*,#137,.T.);
#168=ORIENTED_EDGE('',*,*,#138,.F.);
#169=ORIENTED_EDGE('',*,*,#137,.F.);
#170=ORIENTED_EDGE('',*,*,#139,.F.);
#171=ORIENTED_EDGE('',*,*,#140,.T.);
#172=ORIENTED_EDGE('',*,*,#141,.F.);
#173=ORIENTED_EDGE('',*,*,#140,.F.);
#174=ORIENTED_EDGE('',*,*,#142,.F.);
#175=ORIENTED_EDGE('',*,*,#143,.T.);
#176=ORIENTED_EDGE('',*,*,#144,.F.);
#177=ORIENTED_EDGE('',*,*,#143,.F.);
#178=ORIENTED_EDGE('',*,*,#145,.F.);
#179=ORIENTED_EDGE('',*,*,#146,.T.);
#180=ORIENTED_EDGE('',*,*,#147,.F.);
#181=ORIENTED_EDGE('',*,*,#146,.F.);
#182=ORIENTED_EDGE('',*,*,#148,.F.);
#183=ORIENTED_EDGE('',*,*,#149,.T.);
#184=ORIENTED_EDGE('',*,*,#150,.F.);
#185=ORIENTED_EDGE('',*,*,#149,.F.);
#186=ORIENTED_EDGE('',*,*,#151,.F.);
#187=ORIENTED_EDGE('',*,*,#152,.T.);
#188=ORIENTED_EDGE('',*,*,#153,.F.);
#189=ORIENTED_EDGE('',*,*,#154,.F.);
#190=ORIENTED_EDGE('',*,*,#155,.F.);
#191=ORIENTED_EDGE('',*,*,#154,.T.);
#192=ORIENTED_EDGE('',*,*,#156,.F.);
#193=ORIENTED_EDGE('',*,*,#157,.F.);
#194=ORIENTED_EDGE('',*,*,#158,.F.);
#195=ORIENTED_EDGE('',*,*,#157,.T.);
#196=ORIENTED_EDGE('',*,*,#159,.F.);
#197=ORIENTED_EDGE('',*,*,#160,.F.);
#198=ORIENTED_EDGE('',*,*,#161,.F.);
#199=ORIENTED_EDGE('',*,*,#160,.T.);
#200=ORIENTED_EDGE('',*,*,#162,.F.);
#201=ORIENTED_EDGE('',*,*,#163,.F.);
#202=ORIENTED_EDGE('',*,*,#164,.F.);
#203=ORIENTED_EDGE('',*,*,#163,.T.);
#204=ORIENTED_EDGE('',*,*,#165,.F.);
#205=ORIENTED_EDGE('',*,*,#152,.F.);
#206=ORIENTED_EDGE('',*,*,#165,.T.);
#207=ORIENTED_EDGE('',*,*,#162,.T.);
#208=ORIENTED_EDGE('',*,*,#159,.T.);
#209=ORIENTED_EDGE('',*,*,#156,.T.);
#210=ORIENTED_EDGE('',*,*,#153,.T.);
#211=ORIENTED_EDGE('',*,*,#136,.T.);
#212=ORIENTED_EDGE('',*,*,#139,.T.);
#213=ORIENTED_EDGE('',*,*,#142,.T.);
#214=ORIENTED_EDGE('',*,*,#145,.T.);
#215=ORIENTED_EDGE('',*,*,#148,.T.);
#216=ORIENTED_EDGE('',*,*,#164,.T.);
#217=ORIENTED_EDGE('',*,*,#151,.T.);
#218=ORIENTED_EDGE('',*,*,#155,.T.);
#219=ORIENTED_EDGE('',*,*,#158,.T.);
#220=ORIENTED_EDGE('',*,*,#161,.T.);
#221=ORIENTED_EDGE('',*,*,#138,.T.);
#222=ORIENTED_EDGE('',*,*,#141,.T.);
#223=ORIENTED_EDGE('',*,*,#144,.T.);
#224=ORIENTED_EDGE('',*,*,#147,.T.);
#225=ORIENTED_EDGE('',*,*,#150,.T.);
#226=CYLINDRICAL_SURFACE('',#257,2.55);
#227=CYLINDRICAL_SURFACE('',#260,2.55);
#228=CYLINDRICAL_SURFACE('',#263,2.65);
#229=CYLINDRICAL_SURFACE('',#266,2.55);
#230=CYLINDRICAL_SURFACE('',#269,2.55);
#231=ADVANCED_FACE('',(#32),#226,.F.);
#232=ADVANCED_FACE('',(#33),#227,.F.);
#233=ADVANCED_FACE('',(#34),#228,.F.);
#234=ADVANCED_FACE('',(#35),#229,.F.);
#235=ADVANCED_FACE('',(#36),#230,.F.);
#236=ADVANCED_FACE('',(#37),#25,.T.);
#237=ADVANCED_FACE('',(#38),#26,.T.);
#238=ADVANCED_FACE('',(#39),#27,.T.);
#239=ADVANCED_FACE('',(#40),#28,.T.);
#240=ADVANCED_FACE('',(#41),#29,.T.);
#241=ADVANCED_FACE('',(#42,#15,#16,#17,#18,#19),#30,.T.);
#242=ADVANCED_FACE('',(#43,#20,#21,#22,#23,#24),#31,.F.);
#243=CLOSED_SHELL('',(#231,#232,#233,#234,#235,#236,#237,#238,#239,#240,
#241,#242));
#244=DERIVED_UNIT_ELEMENT(#246,1.);
#245=DERIVED_UNIT_ELEMENT(#415,3.);
#246=(
MASS_UNIT()
NAMED_UNIT(*)
SI_UNIT(.KILO.,.GRAM.)
);
#247=DERIVED_UNIT((#244,#245));
#248=MEASURE_REPRESENTATION_ITEM('density measure',
POSITIVE_RATIO_MEASURE(7850.),#247);
#249=PROPERTY_DEFINITION_REPRESENTATION(#254,#251);
#250=PROPERTY_DEFINITION_REPRESENTATION(#255,#252);
#251=REPRESENTATION('material name',(#253),#410);
#252=REPRESENTATION('density',(#248),#410);
#253=DESCRIPTIVE_REPRESENTATION_ITEM('Steel','Steel');
#254=PROPERTY_DEFINITION('material property','material name',#420);
#255=PROPERTY_DEFINITION('material property','density of part',#420);
#256=AXIS2_PLACEMENT_3D('placement',#345,#279,#280);
#257=AXIS2_PLACEMENT_3D('',#346,#281,#282);
#258=AXIS2_PLACEMENT_3D('',#348,#283,#284);
#259=AXIS2_PLACEMENT_3D('',#351,#286,#287);
#260=AXIS2_PLACEMENT_3D('',#352,#288,#289);
#261=AXIS2_PLACEMENT_3D('',#354,#290,#291);
#262=AXIS2_PLACEMENT_3D('',#357,#293,#294);
#263=AXIS2_PLACEMENT_3D('',#358,#295,#296);
#264=AXIS2_PLACEMENT_3D('',#360,#297,#298);
#265=AXIS2_PLACEMENT_3D('',#363,#300,#301);
#266=AXIS2_PLACEMENT_3D('',#364,#302,#303);
#267=AXIS2_PLACEMENT_3D('',#366,#304,#305);
#268=AXIS2_PLACEMENT_3D('',#369,#307,#308);
#269=AXIS2_PLACEMENT_3D('',#370,#309,#310);
#270=AXIS2_PLACEMENT_3D('',#372,#311,#312);
#271=AXIS2_PLACEMENT_3D('',#375,#314,#315);
#272=AXIS2_PLACEMENT_3D('',#376,#316,#317);
#273=AXIS2_PLACEMENT_3D('',#385,#322,#323);
#274=AXIS2_PLACEMENT_3D('',#391,#327,#328);
#275=AXIS2_PLACEMENT_3D('',#397,#332,#333);
#276=AXIS2_PLACEMENT_3D('',#403,#337,#338);
#277=AXIS2_PLACEMENT_3D('',#406,#341,#342);
#278=AXIS2_PLACEMENT_3D('',#407,#343,#344);
#279=DIRECTION('axis',(0.,0.,1.));
#280=DIRECTION('refdir',(1.,0.,0.));
#281=DIRECTION('center_axis',(0.,0.,-1.));
#282=DIRECTION('ref_axis',(-1.,0.,0.));
#283=DIRECTION('center_axis',(0.,0.,-1.));
#284=DIRECTION('ref_axis',(-1.,0.,0.));
#285=DIRECTION('',(0.,0.,-1.));
#286=DIRECTION('center_axis',(0.,0.,1.));
#287=DIRECTION('ref_axis',(-1.,0.,0.));
#288=DIRECTION('center_axis',(0.,0.,-1.));
#289=DIRECTION('ref_axis',(-1.,0.,0.));
#290=DIRECTION('center_axis',(0.,0.,-1.));
#291=DIRECTION('ref_axis',(-1.,0.,0.));
#292=DIRECTION('',(0.,0.,-1.));
#293=DIRECTION('center_axis',(0.,0.,1.));
#294=DIRECTION('ref_axis',(-1.,0.,0.));
#295=DIRECTION('center_axis',(0.,0.,-1.));
#296=DIRECTION('ref_axis',(-1.,0.,0.));
#297=DIRECTION('center_axis',(0.,0.,-1.));
#298=DIRECTION('ref_axis',(-1.,0.,0.));
#299=DIRECTION('',(0.,0.,-1.));
#300=DIRECTION('center_axis',(0.,0.,1.));
#301=DIRECTION('ref_axis',(-1.,0.,0.));
#302=DIRECTION('center_axis',(0.,0.,-1.));
#303=DIRECTION('ref_axis',(-1.,0.,0.));
#304=DIRECTION('center_axis',(0.,0.,-1.));
#305=DIRECTION('ref_axis',(-1.,0.,0.));
#306=DIRECTION('',(0.,0.,-1.));
#307=DIRECTION('center_axis',(0.,0.,1.));
#308=DIRECTION('ref_axis',(-1.,0.,0.));
#309=DIRECTION('center_axis',(0.,0.,-1.));
#310=DIRECTION('ref_axis',(-1.,0.,0.));
#311=DIRECTION('center_axis',(0.,0.,-1.));
#312=DIRECTION('ref_axis',(-1.,0.,0.));
#313=DIRECTION('',(0.,0.,-1.));
#314=DIRECTION('center_axis',(0.,0.,1.));
#315=DIRECTION('ref_axis',(-1.,0.,0.));
#316=DIRECTION('center_axis',(0.707106781186548,0.707106781186548,0.));
#317=DIRECTION('ref_axis',(-0.707106781186548,0.707106781186548,0.));
#318=DIRECTION('',(0.707106781186548,-0.707106781186548,0.));
#319=DIRECTION('',(0.,0.,1.));
#320=DIRECTION('',(-0.707106781186548,0.707106781186548,0.));
#321=DIRECTION('',(0.,0.,1.));
#322=DIRECTION('center_axis',(1.,0.,0.));
#323=DIRECTION('ref_axis',(0.,1.,0.));
#324=DIRECTION('',(0.,-1.,0.));
#325=DIRECTION('',(0.,1.,0.));
#326=DIRECTION('',(0.,0.,1.));
#327=DIRECTION('center_axis',(0.,-1.,0.));
#328=DIRECTION('ref_axis',(1.,0.,0.));
#329=DIRECTION('',(-1.,0.,0.));
#330=DIRECTION('',(1.,0.,0.));
#331=DIRECTION('',(0.,0.,1.));
#332=DIRECTION('center_axis',(-1.,0.,0.));
#333=DIRECTION('ref_axis',(0.,-1.,0.));
#334=DIRECTION('',(0.,1.,0.));
#335=DIRECTION('',(0.,-1.,0.));
#336=DIRECTION('',(0.,0.,1.));
#337=DIRECTION('center_axis',(0.,1.,0.));
#338=DIRECTION('ref_axis',(-1.,0.,0.));
#339=DIRECTION('',(1.,0.,0.));
#340=DIRECTION('',(-1.,0.,0.));
#341=DIRECTION('center_axis',(0.,0.,1.));
#342=DIRECTION('ref_axis',(1.,0.,0.));
#343=DIRECTION('center_axis',(0.,0.,1.));
#344=DIRECTION('ref_axis',(1.,0.,0.));
#345=CARTESIAN_POINT('',(0.,0.,0.));
#346=CARTESIAN_POINT('Origin',(-20.0000002980232,-20.0000002980232,4.12));
#347=CARTESIAN_POINT('',(-17.4500002980232,-20.0000002980232,4.12));
#348=CARTESIAN_POINT('Origin',(-20.0000002980232,-20.0000002980232,4.12));
#349=CARTESIAN_POINT('',(-17.4500002980232,-20.0000002980232,0.));
#350=CARTESIAN_POINT('',(-17.4500002980232,-20.0000002980232,4.12));
#351=CARTESIAN_POINT('Origin',(-20.0000002980232,-20.0000002980232,0.));
#352=CARTESIAN_POINT('Origin',(-20.0000002980232,0.,4.12));
#353=CARTESIAN_POINT('',(-17.4500002980232,3.12284933782575E-16,4.12));
#354=CARTESIAN_POINT('Origin',(-20.0000002980232,0.,4.12));
#355=CARTESIAN_POINT('',(-17.4500002980232,3.12284933782575E-16,0.));
#356=CARTESIAN_POINT('',(-17.4500002980232,-3.12284933782575E-16,4.12));
#357=CARTESIAN_POINT('Origin',(-20.0000002980232,0.,0.));
#358=CARTESIAN_POINT('Origin',(0.,-20.0000002980232,4.12));
#359=CARTESIAN_POINT('',(2.65,-20.0000002980232,4.12));
#360=CARTESIAN_POINT('Origin',(0.,-20.0000002980232,4.12));
#361=CARTESIAN_POINT('',(2.65,-20.0000002980232,0.));
#362=CARTESIAN_POINT('',(2.65,-20.0000002980232,4.12));
#363=CARTESIAN_POINT('Origin',(0.,-20.0000002980232,0.));
#364=CARTESIAN_POINT('Origin',(-20.0000002980232,20.0000002980232,4.12));
#365=CARTESIAN_POINT('',(-17.4500002980232,20.0000002980232,4.12));
#366=CARTESIAN_POINT('Origin',(-20.0000002980232,20.0000002980232,4.12));
#367=CARTESIAN_POINT('',(-17.4500002980232,20.0000002980232,0.));
#368=CARTESIAN_POINT('',(-17.4500002980232,20.0000002980232,4.12));
#369=CARTESIAN_POINT('Origin',(-20.0000002980232,20.0000002980232,0.));
#370=CARTESIAN_POINT('Origin',(20.0000002980232,-20.0000002980232,4.12));
#371=CARTESIAN_POINT('',(22.5500002980232,-20.0000002980232,4.12));
#372=CARTESIAN_POINT('Origin',(20.0000002980232,-20.0000002980232,4.12));
#373=CARTESIAN_POINT('',(22.5500002980232,-20.0000002980232,0.));
#374=CARTESIAN_POINT('',(22.5500002980232,-20.0000002980232,4.12));
#375=CARTESIAN_POINT('Origin',(20.0000002980232,-20.0000002980232,0.));
#376=CARTESIAN_POINT('Origin',(30.0000004470348,-10.0000001490116,0.));
#377=CARTESIAN_POINT('',(-10.0000001490116,30.0000004470348,0.));
#378=CARTESIAN_POINT('',(30.0000004470348,-10.0000001490116,0.));
#379=CARTESIAN_POINT('',(-10.0000001490116,30.0000004470348,0.));
#380=CARTESIAN_POINT('',(-10.0000001490116,30.0000004470348,4.12));
#381=CARTESIAN_POINT('',(-10.0000001490116,30.0000004470348,0.));
#382=CARTESIAN_POINT('',(30.0000004470348,-10.0000001490116,4.12));
#383=CARTESIAN_POINT('',(-10.0000001490116,30.0000004470348,4.12));
#384=CARTESIAN_POINT('',(30.0000004470348,-10.0000001490116,0.));
#385=CARTESIAN_POINT('Origin',(30.0000004470348,-30.0000004470348,0.));
#386=CARTESIAN_POINT('',(30.0000004470348,-30.0000004470348,0.));
#387=CARTESIAN_POINT('',(30.0000004470348,-10.0000001490116,0.));
#388=CARTESIAN_POINT('',(30.0000004470348,-30.0000004470348,4.12));
#389=CARTESIAN_POINT('',(30.0000004470348,-10.0000001490116,4.12));
#390=CARTESIAN_POINT('',(30.0000004470348,-30.0000004470348,0.));
#391=CARTESIAN_POINT('Origin',(-30.0000004470348,-30.0000004470348,0.));
#392=CARTESIAN_POINT('',(-30.0000004470348,-30.0000004470348,0.));
#393=CARTESIAN_POINT('',(30.0000004470348,-30.0000004470348,0.));
#394=CARTESIAN_POINT('',(-30.0000004470348,-30.0000004470348,4.12));
#395=CARTESIAN_POINT('',(30.0000004470348,-30.0000004470348,4.12));
#396=CARTESIAN_POINT('',(-30.0000004470348,-30.0000004470348,0.));
#397=CARTESIAN_POINT('Origin',(-30.0000004470348,30.0000004470348,0.));
#398=CARTESIAN_POINT('',(-30.0000004470348,30.0000004470348,0.));
#399=CARTESIAN_POINT('',(-30.0000004470348,-30.0000004470348,0.));
#400=CARTESIAN_POINT('',(-30.0000004470348,30.0000004470348,4.12));
#401=CARTESIAN_POINT('',(-30.0000004470348,-30.0000004470348,4.12));
#402=CARTESIAN_POINT('',(-30.0000004470348,30.0000004470348,0.));
#403=CARTESIAN_POINT('Origin',(-10.0000001490116,30.0000004470348,0.));
#404=CARTESIAN_POINT('',(-30.0000004470348,30.0000004470348,0.));
#405=CARTESIAN_POINT('',(-30.0000004470348,30.0000004470348,4.12));
#406=CARTESIAN_POINT('Origin',(0.,0.,4.12));
#407=CARTESIAN_POINT('Origin',(0.,0.,0.));
#408=UNCERTAINTY_MEASURE_WITH_UNIT(LENGTH_MEASURE(0.01),#414,
'DISTANCE_ACCURACY_VALUE',
'Maximum model space distance between geometric entities at asserted c
onnectivities');
#409=UNCERTAINTY_MEASURE_WITH_UNIT(LENGTH_MEASURE(0.01),#414,
'DISTANCE_ACCURACY_VALUE',
'Maximum model space distance between geometric entities at asserted c
onnectivities');
#410=(
GEOMETRIC_REPRESENTATION_CONTEXT(3)
GLOBAL_UNCERTAINTY_ASSIGNED_CONTEXT((#408))
GLOBAL_UNIT_ASSIGNED_CONTEXT((#414,#413,#412))
REPRESENTATION_CONTEXT('','3D')
);
#411=(
GEOMETRIC_REPRESENTATION_CONTEXT(3)
GLOBAL_UNCERTAINTY_ASSIGNED_CONTEXT((#409))
GLOBAL_UNIT_ASSIGNED_CONTEXT((#414,#413,#412))
REPRESENTATION_CONTEXT('','3D')
);
#412=(
NAMED_UNIT(*)
SI_UNIT($,.STERADIAN.)
SOLID_ANGLE_UNIT()
);
#413=(
NAMED_UNIT(*)
PLANE_ANGLE_UNIT()
SI_UNIT($,.RADIAN.)
);
#414=(
LENGTH_UNIT()
NAMED_UNIT(*)
SI_UNIT(.MILLI.,.METRE.)
);
#415=(
LENGTH_UNIT()
NAMED_UNIT(*)
SI_UNIT($,.METRE.)
);
#416=SHAPE_DEFINITION_REPRESENTATION(#417,#418);
#417=PRODUCT_DEFINITION_SHAPE('',$,#420);
#418=SHAPE_REPRESENTATION('',(#256),#410);
#419=PRODUCT_DEFINITION_CONTEXT('part definition',#424,'design');
#420=PRODUCT_DEFINITION('aluminum-corner','aluminum-corner v1',#421,#419);
#421=PRODUCT_DEFINITION_FORMATION('',$,#426);
#422=PRODUCT_RELATED_PRODUCT_CATEGORY('aluminum-corner v1',
'aluminum-corner v1',(#426));
#423=APPLICATION_PROTOCOL_DEFINITION('international standard',
'automotive_design',2009,#424);
#424=APPLICATION_CONTEXT(
'Core Data for Automotive Mechanical Design Process');
#425=PRODUCT_CONTEXT('part definition',#424,'mechanical');
#426=PRODUCT('aluminum-corner','aluminum-corner v1',$,(#425));
#427=PRESENTATION_STYLE_ASSIGNMENT((#428));
#428=SURFACE_STYLE_USAGE(.BOTH.,#429);
#429=SURFACE_SIDE_STYLE('',(#430));
#430=SURFACE_STYLE_FILL_AREA(#431);
#431=FILL_AREA_STYLE('Steel - Satin',(#432));
#432=FILL_AREA_STYLE_COLOUR('Steel - Satin',#433);
#433=COLOUR_RGB('Steel - Satin',0.627450980392157,0.627450980392157,0.627450980392157);
ENDSEC;
END-ISO-10303-21;
