ISO-10303-21;
HEADER;
/* Generated by software containing ST-Developer
 * from STEP Tools, Inc. (www.steptools.com) 
 */

FILE_DESCRIPTION(
/* description */ (''),
/* implementation_level */ '2;1');

FILE_NAME(
/* name */ '/Users/Twmaster/Downloads/Nema15-2020-plate.step',
/* time_stamp */ '2020-04-05T21:33:07-05:00',
/* author */ (''),
/* organization */ (''),
/* preprocessor_version */ 'ST-DEVELOPER v18',
/* originating_system */ 'Autodesk Translation Framework v8.12.0.6',
/* authorisation */ '');

FILE_SCHEMA (('AUTOMOTIVE_DESIGN { 1 0 10303 214 3 1 1 }'));
ENDSEC;

DATA;
#10=MECHANICAL_DESIGN_GEOMETRIC_PRESENTATION_REPRESENTATION('',(#13),#635);
#11=SHAPE_REPRESENTATION_RELATIONSHIP('SRR','None',#642,#12);
#12=ADVANCED_BREP_SHAPE_REPRESENTATION('',(#14),#634);
#13=STYLED_ITEM('',(#651),#14);
#14=MANIFOLD_SOLID_BREP('Body1',#367);
#15=FACE_BOUND('',#57,.T.);
#16=FACE_BOUND('',#58,.T.);
#17=FACE_BOUND('',#59,.T.);
#18=FACE_BOUND('',#60,.T.);
#19=FACE_BOUND('',#61,.T.);
#20=FACE_BOUND('',#62,.T.);
#21=FACE_BOUND('',#63,.T.);
#22=FACE_BOUND('',#64,.T.);
#23=FACE_BOUND('',#81,.T.);
#24=FACE_BOUND('',#82,.T.);
#25=FACE_BOUND('',#83,.T.);
#26=FACE_BOUND('',#84,.T.);
#27=FACE_BOUND('',#85,.T.);
#28=FACE_BOUND('',#86,.T.);
#29=FACE_BOUND('',#87,.T.);
#30=FACE_BOUND('',#88,.T.);
#31=PLANE('',#384);
#32=PLANE('',#396);
#33=PLANE('',#401);
#34=PLANE('',#420);
#35=PLANE('',#421);
#36=PLANE('',#422);
#37=FACE_OUTER_BOUND('',#55,.T.);
#38=FACE_OUTER_BOUND('',#56,.T.);
#39=FACE_OUTER_BOUND('',#65,.T.);
#40=FACE_OUTER_BOUND('',#66,.T.);
#41=FACE_OUTER_BOUND('',#67,.T.);
#42=FACE_OUTER_BOUND('',#68,.T.);
#43=FACE_OUTER_BOUND('',#69,.T.);
#44=FACE_OUTER_BOUND('',#70,.T.);
#45=FACE_OUTER_BOUND('',#71,.T.);
#46=FACE_OUTER_BOUND('',#72,.T.);
#47=FACE_OUTER_BOUND('',#73,.T.);
#48=FACE_OUTER_BOUND('',#74,.T.);
#49=FACE_OUTER_BOUND('',#75,.T.);
#50=FACE_OUTER_BOUND('',#76,.T.);
#51=FACE_OUTER_BOUND('',#77,.T.);
#52=FACE_OUTER_BOUND('',#78,.T.);
#53=FACE_OUTER_BOUND('',#79,.T.);
#54=FACE_OUTER_BOUND('',#80,.T.);
#55=EDGE_LOOP('',(#241,#242,#243,#244));
#56=EDGE_LOOP('',(#245,#246,#247,#248,#249,#250,#251,#252));
#57=EDGE_LOOP('',(#253));
#58=EDGE_LOOP('',(#254));
#59=EDGE_LOOP('',(#255));
#60=EDGE_LOOP('',(#256));
#61=EDGE_LOOP('',(#257));
#62=EDGE_LOOP('',(#258));
#63=EDGE_LOOP('',(#259));
#64=EDGE_LOOP('',(#260));
#65=EDGE_LOOP('',(#261,#262,#263,#264));
#66=EDGE_LOOP('',(#265,#266,#267,#268));
#67=EDGE_LOOP('',(#269,#270,#271,#272));
#68=EDGE_LOOP('',(#273,#274,#275,#276));
#69=EDGE_LOOP('',(#277,#278,#279,#280));
#70=EDGE_LOOP('',(#281,#282,#283,#284));
#71=EDGE_LOOP('',(#285,#286,#287,#288));
#72=EDGE_LOOP('',(#289,#290,#291,#292));
#73=EDGE_LOOP('',(#293,#294,#295,#296));
#74=EDGE_LOOP('',(#297,#298,#299,#300));
#75=EDGE_LOOP('',(#301,#302,#303,#304));
#76=EDGE_LOOP('',(#305,#306,#307,#308));
#77=EDGE_LOOP('',(#309,#310,#311,#312));
#78=EDGE_LOOP('',(#313,#314,#315,#316));
#79=EDGE_LOOP('',(#317,#318,#319,#320));
#80=EDGE_LOOP('',(#321,#322,#323,#324,#325,#326,#327,#328));
#81=EDGE_LOOP('',(#329));
#82=EDGE_LOOP('',(#330));
#83=EDGE_LOOP('',(#331));
#84=EDGE_LOOP('',(#332));
#85=EDGE_LOOP('',(#333));
#86=EDGE_LOOP('',(#334));
#87=EDGE_LOOP('',(#335));
#88=EDGE_LOOP('',(#336));
#89=LINE('',#539,#113);
#90=LINE('',#542,#114);
#91=LINE('',#545,#115);
#92=LINE('',#549,#116);
#93=LINE('',#553,#117);
#94=LINE('',#556,#118);
#95=LINE('',#575,#119);
#96=LINE('',#576,#120);
#97=LINE('',#580,#121);
#98=LINE('',#583,#122);
#99=LINE('',#586,#123);
#100=LINE('',#589,#124);
#101=LINE('',#590,#125);
#102=LINE('',#593,#126);
#103=LINE('',#597,#127);
#104=LINE('',#601,#128);
#105=LINE('',#605,#129);
#106=LINE('',#609,#130);
#107=LINE('',#613,#131);
#108=LINE('',#617,#132);
#109=LINE('',#621,#133);
#110=LINE('',#625,#134);
#111=LINE('',#628,#135);
#112=LINE('',#630,#136);
#113=VECTOR('',#429,10.);
#114=VECTOR('',#432,10.);
#115=VECTOR('',#435,10.);
#116=VECTOR('',#438,10.);
#117=VECTOR('',#441,10.);
#118=VECTOR('',#444,10.);
#119=VECTOR('',#463,10.);
#120=VECTOR('',#464,10.);
#121=VECTOR('',#469,10.);
#122=VECTOR('',#472,10.);
#123=VECTOR('',#475,10.);
#124=VECTOR('',#478,10.);
#125=VECTOR('',#479,10.);
#126=VECTOR('',#482,10.);
#127=VECTOR('',#487,2.55);
#128=VECTOR('',#492,1.55);
#129=VECTOR('',#497,2.55);
#130=VECTOR('',#502,1.55);
#131=VECTOR('',#507,11.05);
#132=VECTOR('',#512,1.55);
#133=VECTOR('',#517,1.55);
#134=VECTOR('',#522,2.55);
#135=VECTOR('',#527,10.);
#136=VECTOR('',#530,10.);
#137=CIRCLE('',#382,5.);
#138=CIRCLE('',#383,5.);
#139=CIRCLE('',#385,5.);
#140=CIRCLE('',#386,5.);
#141=CIRCLE('',#387,5.);
#142=CIRCLE('',#388,2.55);
#143=CIRCLE('',#389,1.55);
#144=CIRCLE('',#390,1.55);
#145=CIRCLE('',#391,11.05);
#146=CIRCLE('',#392,1.55);
#147=CIRCLE('',#393,2.55);
#148=CIRCLE('',#394,1.55);
#149=CIRCLE('',#395,2.55);
#150=CIRCLE('',#398,5.);
#151=CIRCLE('',#400,5.);
#152=CIRCLE('',#403,5.);
#153=CIRCLE('',#405,2.55);
#154=CIRCLE('',#407,1.55);
#155=CIRCLE('',#409,2.55);
#156=CIRCLE('',#411,1.55);
#157=CIRCLE('',#413,11.05);
#158=CIRCLE('',#415,1.55);
#159=CIRCLE('',#417,1.55);
#160=CIRCLE('',#419,2.55);
#161=VERTEX_POINT('',#535);
#162=VERTEX_POINT('',#536);
#163=VERTEX_POINT('',#538);
#164=VERTEX_POINT('',#540);
#165=VERTEX_POINT('',#544);
#166=VERTEX_POINT('',#546);
#167=VERTEX_POINT('',#548);
#168=VERTEX_POINT('',#550);
#169=VERTEX_POINT('',#552);
#170=VERTEX_POINT('',#554);
#171=VERTEX_POINT('',#557);
#172=VERTEX_POINT('',#559);
#173=VERTEX_POINT('',#561);
#174=VERTEX_POINT('',#563);
#175=VERTEX_POINT('',#565);
#176=VERTEX_POINT('',#567);
#177=VERTEX_POINT('',#569);
#178=VERTEX_POINT('',#571);
#179=VERTEX_POINT('',#574);
#180=VERTEX_POINT('',#578);
#181=VERTEX_POINT('',#582);
#182=VERTEX_POINT('',#584);
#183=VERTEX_POINT('',#588);
#184=VERTEX_POINT('',#592);
#185=VERTEX_POINT('',#596);
#186=VERTEX_POINT('',#600);
#187=VERTEX_POINT('',#604);
#188=VERTEX_POINT('',#608);
#189=VERTEX_POINT('',#612);
#190=VERTEX_POINT('',#616);
#191=VERTEX_POINT('',#620);
#192=VERTEX_POINT('',#624);
#193=EDGE_CURVE('',#161,#162,#137,.T.);
#194=EDGE_CURVE('',#162,#163,#89,.T.);
#195=EDGE_CURVE('',#163,#164,#138,.T.);
#196=EDGE_CURVE('',#164,#161,#90,.T.);
#197=EDGE_CURVE('',#161,#165,#91,.T.);
#198=EDGE_CURVE('',#166,#165,#139,.T.);
#199=EDGE_CURVE('',#166,#167,#92,.T.);
#200=EDGE_CURVE('',#168,#167,#140,.T.);
#201=EDGE_CURVE('',#168,#169,#93,.T.);
#202=EDGE_CURVE('',#170,#169,#141,.T.);
#203=EDGE_CURVE('',#170,#162,#94,.T.);
#204=EDGE_CURVE('',#171,#171,#142,.T.);
#205=EDGE_CURVE('',#172,#172,#143,.T.);
#206=EDGE_CURVE('',#173,#173,#144,.T.);
#207=EDGE_CURVE('',#174,#174,#145,.T.);
#208=EDGE_CURVE('',#175,#175,#146,.T.);
#209=EDGE_CURVE('',#176,#176,#147,.T.);
#210=EDGE_CURVE('',#177,#177,#148,.T.);
#211=EDGE_CURVE('',#178,#178,#149,.T.);
#212=EDGE_CURVE('',#179,#164,#95,.T.);
#213=EDGE_CURVE('',#165,#179,#96,.T.);
#214=EDGE_CURVE('',#179,#180,#150,.T.);
#215=EDGE_CURVE('',#180,#166,#97,.T.);
#216=EDGE_CURVE('',#169,#181,#98,.T.);
#217=EDGE_CURVE('',#181,#182,#151,.T.);
#218=EDGE_CURVE('',#182,#170,#99,.T.);
#219=EDGE_CURVE('',#183,#168,#100,.T.);
#220=EDGE_CURVE('',#181,#183,#101,.T.);
#221=EDGE_CURVE('',#167,#184,#102,.T.);
#222=EDGE_CURVE('',#184,#183,#152,.T.);
#223=EDGE_CURVE('',#178,#185,#103,.T.);
#224=EDGE_CURVE('',#185,#185,#153,.T.);
#225=EDGE_CURVE('',#177,#186,#104,.T.);
#226=EDGE_CURVE('',#186,#186,#154,.T.);
#227=EDGE_CURVE('',#176,#187,#105,.T.);
#228=EDGE_CURVE('',#187,#187,#155,.T.);
#229=EDGE_CURVE('',#175,#188,#106,.T.);
#230=EDGE_CURVE('',#188,#188,#156,.T.);
#231=EDGE_CURVE('',#174,#189,#107,.T.);
#232=EDGE_CURVE('',#189,#189,#157,.T.);
#233=EDGE_CURVE('',#173,#190,#108,.T.);
#234=EDGE_CURVE('',#190,#190,#158,.T.);
#235=EDGE_CURVE('',#172,#191,#109,.T.);
#236=EDGE_CURVE('',#191,#191,#159,.T.);
#237=EDGE_CURVE('',#171,#192,#110,.T.);
#238=EDGE_CURVE('',#192,#192,#160,.T.);
#239=EDGE_CURVE('',#184,#180,#111,.T.);
#240=EDGE_CURVE('',#163,#182,#112,.T.);
#241=ORIENTED_EDGE('',*,*,#193,.T.);
#242=ORIENTED_EDGE('',*,*,#194,.T.);
#243=ORIENTED_EDGE('',*,*,#195,.T.);
#244=ORIENTED_EDGE('',*,*,#196,.T.);
#245=ORIENTED_EDGE('',*,*,#193,.F.);
#246=ORIENTED_EDGE('',*,*,#197,.T.);
#247=ORIENTED_EDGE('',*,*,#198,.F.);
#248=ORIENTED_EDGE('',*,*,#199,.T.);
#249=ORIENTED_EDGE('',*,*,#200,.F.);
#250=ORIENTED_EDGE('',*,*,#201,.T.);
#251=ORIENTED_EDGE('',*,*,#202,.F.);
#252=ORIENTED_EDGE('',*,*,#203,.T.);
#253=ORIENTED_EDGE('',*,*,#204,.T.);
#254=ORIENTED_EDGE('',*,*,#205,.T.);
#255=ORIENTED_EDGE('',*,*,#206,.T.);
#256=ORIENTED_EDGE('',*,*,#207,.T.);
#257=ORIENTED_EDGE('',*,*,#208,.T.);
#258=ORIENTED_EDGE('',*,*,#209,.T.);
#259=ORIENTED_EDGE('',*,*,#210,.T.);
#260=ORIENTED_EDGE('',*,*,#211,.T.);
#261=ORIENTED_EDGE('',*,*,#196,.F.);
#262=ORIENTED_EDGE('',*,*,#212,.F.);
#263=ORIENTED_EDGE('',*,*,#213,.F.);
#264=ORIENTED_EDGE('',*,*,#197,.F.);
#265=ORIENTED_EDGE('',*,*,#198,.T.);
#266=ORIENTED_EDGE('',*,*,#213,.T.);
#267=ORIENTED_EDGE('',*,*,#214,.T.);
#268=ORIENTED_EDGE('',*,*,#215,.T.);
#269=ORIENTED_EDGE('',*,*,#202,.T.);
#270=ORIENTED_EDGE('',*,*,#216,.T.);
#271=ORIENTED_EDGE('',*,*,#217,.T.);
#272=ORIENTED_EDGE('',*,*,#218,.T.);
#273=ORIENTED_EDGE('',*,*,#216,.F.);
#274=ORIENTED_EDGE('',*,*,#201,.F.);
#275=ORIENTED_EDGE('',*,*,#219,.F.);
#276=ORIENTED_EDGE('',*,*,#220,.F.);
#277=ORIENTED_EDGE('',*,*,#200,.T.);
#278=ORIENTED_EDGE('',*,*,#221,.T.);
#279=ORIENTED_EDGE('',*,*,#222,.T.);
#280=ORIENTED_EDGE('',*,*,#219,.T.);
#281=ORIENTED_EDGE('',*,*,#211,.F.);
#282=ORIENTED_EDGE('',*,*,#223,.T.);
#283=ORIENTED_EDGE('',*,*,#224,.T.);
#284=ORIENTED_EDGE('',*,*,#223,.F.);
#285=ORIENTED_EDGE('',*,*,#210,.F.);
#286=ORIENTED_EDGE('',*,*,#225,.T.);
#287=ORIENTED_EDGE('',*,*,#226,.T.);
#288=ORIENTED_EDGE('',*,*,#225,.F.);
#289=ORIENTED_EDGE('',*,*,#209,.F.);
#290=ORIENTED_EDGE('',*,*,#227,.T.);
#291=ORIENTED_EDGE('',*,*,#228,.T.);
#292=ORIENTED_EDGE('',*,*,#227,.F.);
#293=ORIENTED_EDGE('',*,*,#208,.F.);
#294=ORIENTED_EDGE('',*,*,#229,.T.);
#295=ORIENTED_EDGE('',*,*,#230,.T.);
#296=ORIENTED_EDGE('',*,*,#229,.F.);
#297=ORIENTED_EDGE('',*,*,#207,.F.);
#298=ORIENTED_EDGE('',*,*,#231,.T.);
#299=ORIENTED_EDGE('',*,*,#232,.T.);
#300=ORIENTED_EDGE('',*,*,#231,.F.);
#301=ORIENTED_EDGE('',*,*,#206,.F.);
#302=ORIENTED_EDGE('',*,*,#233,.T.);
#303=ORIENTED_EDGE('',*,*,#234,.T.);
#304=ORIENTED_EDGE('',*,*,#233,.F.);
#305=ORIENTED_EDGE('',*,*,#205,.F.);
#306=ORIENTED_EDGE('',*,*,#235,.T.);
#307=ORIENTED_EDGE('',*,*,#236,.T.);
#308=ORIENTED_EDGE('',*,*,#235,.F.);
#309=ORIENTED_EDGE('',*,*,#204,.F.);
#310=ORIENTED_EDGE('',*,*,#237,.T.);
#311=ORIENTED_EDGE('',*,*,#238,.T.);
#312=ORIENTED_EDGE('',*,*,#237,.F.);
#313=ORIENTED_EDGE('',*,*,#215,.F.);
#314=ORIENTED_EDGE('',*,*,#239,.F.);
#315=ORIENTED_EDGE('',*,*,#221,.F.);
#316=ORIENTED_EDGE('',*,*,#199,.F.);
#317=ORIENTED_EDGE('',*,*,#194,.F.);
#318=ORIENTED_EDGE('',*,*,#203,.F.);
#319=ORIENTED_EDGE('',*,*,#218,.F.);
#320=ORIENTED_EDGE('',*,*,#240,.F.);
#321=ORIENTED_EDGE('',*,*,#195,.F.);
#322=ORIENTED_EDGE('',*,*,#240,.T.);
#323=ORIENTED_EDGE('',*,*,#217,.F.);
#324=ORIENTED_EDGE('',*,*,#220,.T.);
#325=ORIENTED_EDGE('',*,*,#222,.F.);
#326=ORIENTED_EDGE('',*,*,#239,.T.);
#327=ORIENTED_EDGE('',*,*,#214,.F.);
#328=ORIENTED_EDGE('',*,*,#212,.T.);
#329=ORIENTED_EDGE('',*,*,#238,.F.);
#330=ORIENTED_EDGE('',*,*,#236,.F.);
#331=ORIENTED_EDGE('',*,*,#234,.F.);
#332=ORIENTED_EDGE('',*,*,#232,.F.);
#333=ORIENTED_EDGE('',*,*,#230,.F.);
#334=ORIENTED_EDGE('',*,*,#228,.F.);
#335=ORIENTED_EDGE('',*,*,#226,.F.);
#336=ORIENTED_EDGE('',*,*,#224,.F.);
#337=CYLINDRICAL_SURFACE('',#381,5.);
#338=CYLINDRICAL_SURFACE('',#397,5.);
#339=CYLINDRICAL_SURFACE('',#399,5.);
#340=CYLINDRICAL_SURFACE('',#402,5.);
#341=CYLINDRICAL_SURFACE('',#404,2.55);
#342=CYLINDRICAL_SURFACE('',#406,1.55);
#343=CYLINDRICAL_SURFACE('',#408,2.55);
#344=CYLINDRICAL_SURFACE('',#410,1.55);
#345=CYLINDRICAL_SURFACE('',#412,11.05);
#346=CYLINDRICAL_SURFACE('',#414,1.55);
#347=CYLINDRICAL_SURFACE('',#416,1.55);
#348=CYLINDRICAL_SURFACE('',#418,2.55);
#349=ADVANCED_FACE('',(#37),#337,.T.);
#350=ADVANCED_FACE('',(#38,#15,#16,#17,#18,#19,#20,#21,#22),#31,.T.);
#351=ADVANCED_FACE('',(#39),#32,.T.);
#352=ADVANCED_FACE('',(#40),#338,.T.);
#353=ADVANCED_FACE('',(#41),#339,.T.);
#354=ADVANCED_FACE('',(#42),#33,.T.);
#355=ADVANCED_FACE('',(#43),#340,.T.);
#356=ADVANCED_FACE('',(#44),#341,.F.);
#357=ADVANCED_FACE('',(#45),#342,.F.);
#358=ADVANCED_FACE('',(#46),#343,.F.);
#359=ADVANCED_FACE('',(#47),#344,.F.);
#360=ADVANCED_FACE('',(#48),#345,.F.);
#361=ADVANCED_FACE('',(#49),#346,.F.);
#362=ADVANCED_FACE('',(#50),#347,.F.);
#363=ADVANCED_FACE('',(#51),#348,.F.);
#364=ADVANCED_FACE('',(#52),#34,.T.);
#365=ADVANCED_FACE('',(#53),#35,.T.);
#366=ADVANCED_FACE('',(#54,#23,#24,#25,#26,#27,#28,#29,#30),#36,.F.);
#367=CLOSED_SHELL('',(#349,#350,#351,#352,#353,#354,#355,#356,#357,#358,
#359,#360,#361,#362,#363,#364,#365,#366));
#368=DERIVED_UNIT_ELEMENT(#370,1.);
#369=DERIVED_UNIT_ELEMENT(#637,3.);
#370=(
MASS_UNIT()
NAMED_UNIT(*)
SI_UNIT(.KILO.,.GRAM.)
);
#371=DERIVED_UNIT((#368,#369));
#372=MEASURE_REPRESENTATION_ITEM('density measure',
POSITIVE_RATIO_MEASURE(1290.),#371);
#373=PROPERTY_DEFINITION_REPRESENTATION(#378,#375);
#374=PROPERTY_DEFINITION_REPRESENTATION(#379,#376);
#375=REPRESENTATION('material name',(#377),#634);
#376=REPRESENTATION('density',(#372),#634);
#377=DESCRIPTIVE_REPRESENTATION_ITEM('Plastic','Plastic');
#378=PROPERTY_DEFINITION('material property','material name',#644);
#379=PROPERTY_DEFINITION('material property','density of part',#644);
#380=AXIS2_PLACEMENT_3D('placement',#533,#423,#424);
#381=AXIS2_PLACEMENT_3D('',#534,#425,#426);
#382=AXIS2_PLACEMENT_3D('',#537,#427,#428);
#383=AXIS2_PLACEMENT_3D('',#541,#430,#431);
#384=AXIS2_PLACEMENT_3D('',#543,#433,#434);
#385=AXIS2_PLACEMENT_3D('',#547,#436,#437);
#386=AXIS2_PLACEMENT_3D('',#551,#439,#440);
#387=AXIS2_PLACEMENT_3D('',#555,#442,#443);
#388=AXIS2_PLACEMENT_3D('',#558,#445,#446);
#389=AXIS2_PLACEMENT_3D('',#560,#447,#448);
#390=AXIS2_PLACEMENT_3D('',#562,#449,#450);
#391=AXIS2_PLACEMENT_3D('',#564,#451,#452);
#392=AXIS2_PLACEMENT_3D('',#566,#453,#454);
#393=AXIS2_PLACEMENT_3D('',#568,#455,#456);
#394=AXIS2_PLACEMENT_3D('',#570,#457,#458);
#395=AXIS2_PLACEMENT_3D('',#572,#459,#460);
#396=AXIS2_PLACEMENT_3D('',#573,#461,#462);
#397=AXIS2_PLACEMENT_3D('',#577,#465,#466);
#398=AXIS2_PLACEMENT_3D('',#579,#467,#468);
#399=AXIS2_PLACEMENT_3D('',#581,#470,#471);
#400=AXIS2_PLACEMENT_3D('',#585,#473,#474);
#401=AXIS2_PLACEMENT_3D('',#587,#476,#477);
#402=AXIS2_PLACEMENT_3D('',#591,#480,#481);
#403=AXIS2_PLACEMENT_3D('',#594,#483,#484);
#404=AXIS2_PLACEMENT_3D('',#595,#485,#486);
#405=AXIS2_PLACEMENT_3D('',#598,#488,#489);
#406=AXIS2_PLACEMENT_3D('',#599,#490,#491);
#407=AXIS2_PLACEMENT_3D('',#602,#493,#494);
#408=AXIS2_PLACEMENT_3D('',#603,#495,#496);
#409=AXIS2_PLACEMENT_3D('',#606,#498,#499);
#410=AXIS2_PLACEMENT_3D('',#607,#500,#501);
#411=AXIS2_PLACEMENT_3D('',#610,#503,#504);
#412=AXIS2_PLACEMENT_3D('',#611,#505,#506);
#413=AXIS2_PLACEMENT_3D('',#614,#508,#509);
#414=AXIS2_PLACEMENT_3D('',#615,#510,#511);
#415=AXIS2_PLACEMENT_3D('',#618,#513,#514);
#416=AXIS2_PLACEMENT_3D('',#619,#515,#516);
#417=AXIS2_PLACEMENT_3D('',#622,#518,#519);
#418=AXIS2_PLACEMENT_3D('',#623,#520,#521);
#419=AXIS2_PLACEMENT_3D('',#626,#523,#524);
#420=AXIS2_PLACEMENT_3D('',#627,#525,#526);
#421=AXIS2_PLACEMENT_3D('',#629,#528,#529);
#422=AXIS2_PLACEMENT_3D('',#631,#531,#532);
#423=DIRECTION('axis',(0.,0.,1.));
#424=DIRECTION('refdir',(1.,0.,0.));
#425=DIRECTION('center_axis',(0.,0.,1.));
#426=DIRECTION('ref_axis',(-0.707106781186547,0.707106781186547,0.));
#427=DIRECTION('center_axis',(0.,0.,-1.));
#428=DIRECTION('ref_axis',(-0.707106781186547,0.707106781186547,0.));
#429=DIRECTION('',(0.,0.,-1.));
#430=DIRECTION('center_axis',(0.,0.,1.));
#431=DIRECTION('ref_axis',(-0.707106781186547,0.707106781186547,0.));
#432=DIRECTION('',(0.,0.,1.));
#433=DIRECTION('center_axis',(0.,0.,1.));
#434=DIRECTION('ref_axis',(1.,0.,0.));
#435=DIRECTION('',(0.,-1.,0.));
#436=DIRECTION('center_axis',(0.,0.,-1.));
#437=DIRECTION('ref_axis',(-0.707106781186547,-0.707106781186547,0.));
#438=DIRECTION('',(1.,0.,0.));
#439=DIRECTION('center_axis',(0.,0.,-1.));
#440=DIRECTION('ref_axis',(0.707106781186547,-0.707106781186547,0.));
#441=DIRECTION('',(0.,1.,0.));
#442=DIRECTION('center_axis',(0.,0.,-1.));
#443=DIRECTION('ref_axis',(0.707106781186547,0.707106781186547,0.));
#444=DIRECTION('',(-1.,0.,0.));
#445=DIRECTION('center_axis',(0.,0.,-1.));
#446=DIRECTION('ref_axis',(1.,0.,0.));
#447=DIRECTION('center_axis',(0.,0.,-1.));
#448=DIRECTION('ref_axis',(1.,0.,0.));
#449=DIRECTION('center_axis',(0.,0.,-1.));
#450=DIRECTION('ref_axis',(1.,0.,0.));
#451=DIRECTION('center_axis',(0.,0.,-1.));
#452=DIRECTION('ref_axis',(1.,0.,0.));
#453=DIRECTION('center_axis',(0.,0.,-1.));
#454=DIRECTION('ref_axis',(1.,0.,0.));
#455=DIRECTION('center_axis',(0.,0.,-1.));
#456=DIRECTION('ref_axis',(1.,0.,0.));
#457=DIRECTION('center_axis',(0.,0.,-1.));
#458=DIRECTION('ref_axis',(1.,0.,0.));
#459=DIRECTION('center_axis',(0.,0.,-1.));
#460=DIRECTION('ref_axis',(1.,0.,0.));
#461=DIRECTION('center_axis',(-1.,0.,0.));
#462=DIRECTION('ref_axis',(0.,-1.,0.));
#463=DIRECTION('',(0.,1.,0.));
#464=DIRECTION('',(0.,0.,-1.));
#465=DIRECTION('center_axis',(0.,0.,1.));
#466=DIRECTION('ref_axis',(-0.707106781186547,-0.707106781186547,0.));
#467=DIRECTION('center_axis',(0.,0.,1.));
#468=DIRECTION('ref_axis',(-0.707106781186547,-0.707106781186547,0.));
#469=DIRECTION('',(0.,0.,1.));
#470=DIRECTION('center_axis',(0.,0.,1.));
#471=DIRECTION('ref_axis',(0.707106781186547,0.707106781186547,0.));
#472=DIRECTION('',(0.,0.,-1.));
#473=DIRECTION('center_axis',(0.,0.,1.));
#474=DIRECTION('ref_axis',(0.707106781186547,0.707106781186547,0.));
#475=DIRECTION('',(0.,0.,1.));
#476=DIRECTION('center_axis',(1.,0.,0.));
#477=DIRECTION('ref_axis',(0.,1.,0.));
#478=DIRECTION('',(0.,0.,1.));
#479=DIRECTION('',(0.,-1.,0.));
#480=DIRECTION('center_axis',(0.,0.,1.));
#481=DIRECTION('ref_axis',(0.707106781186547,-0.707106781186547,0.));
#482=DIRECTION('',(0.,0.,-1.));
#483=DIRECTION('center_axis',(0.,0.,1.));
#484=DIRECTION('ref_axis',(0.707106781186547,-0.707106781186547,0.));
#485=DIRECTION('center_axis',(0.,0.,1.));
#486=DIRECTION('ref_axis',(1.,0.,0.));
#487=DIRECTION('',(0.,0.,-1.));
#488=DIRECTION('center_axis',(0.,0.,-1.));
#489=DIRECTION('ref_axis',(1.,0.,0.));
#490=DIRECTION('center_axis',(0.,0.,1.));
#491=DIRECTION('ref_axis',(1.,0.,0.));
#492=DIRECTION('',(0.,0.,-1.));
#493=DIRECTION('center_axis',(0.,0.,-1.));
#494=DIRECTION('ref_axis',(1.,0.,0.));
#495=DIRECTION('center_axis',(0.,0.,1.));
#496=DIRECTION('ref_axis',(1.,0.,0.));
#497=DIRECTION('',(0.,0.,-1.));
#498=DIRECTION('center_axis',(0.,0.,-1.));
#499=DIRECTION('ref_axis',(1.,0.,0.));
#500=DIRECTION('center_axis',(0.,0.,1.));
#501=DIRECTION('ref_axis',(1.,0.,0.));
#502=DIRECTION('',(0.,0.,-1.));
#503=DIRECTION('center_axis',(0.,0.,-1.));
#504=DIRECTION('ref_axis',(1.,0.,0.));
#505=DIRECTION('center_axis',(0.,0.,1.));
#506=DIRECTION('ref_axis',(1.,0.,0.));
#507=DIRECTION('',(0.,0.,-1.));
#508=DIRECTION('center_axis',(0.,0.,-1.));
#509=DIRECTION('ref_axis',(1.,0.,0.));
#510=DIRECTION('center_axis',(0.,0.,1.));
#511=DIRECTION('ref_axis',(1.,0.,0.));
#512=DIRECTION('',(0.,0.,-1.));
#513=DIRECTION('center_axis',(0.,0.,-1.));
#514=DIRECTION('ref_axis',(1.,0.,0.));
#515=DIRECTION('center_axis',(0.,0.,1.));
#516=DIRECTION('ref_axis',(1.,0.,0.));
#517=DIRECTION('',(0.,0.,-1.));
#518=DIRECTION('center_axis',(0.,0.,-1.));
#519=DIRECTION('ref_axis',(1.,0.,0.));
#520=DIRECTION('center_axis',(0.,0.,1.));
#521=DIRECTION('ref_axis',(1.,0.,0.));
#522=DIRECTION('',(0.,0.,-1.));
#523=DIRECTION('center_axis',(0.,0.,-1.));
#524=DIRECTION('ref_axis',(1.,0.,0.));
#525=DIRECTION('center_axis',(0.,-1.,0.));
#526=DIRECTION('ref_axis',(1.,0.,0.));
#527=DIRECTION('',(-1.,0.,0.));
#528=DIRECTION('center_axis',(0.,1.,0.));
#529=DIRECTION('ref_axis',(-1.,0.,0.));
#530=DIRECTION('',(1.,0.,0.));
#531=DIRECTION('center_axis',(0.,0.,1.));
#532=DIRECTION('ref_axis',(1.,0.,0.));
#533=CARTESIAN_POINT('',(0.,0.,0.));
#534=CARTESIAN_POINT('Origin',(-16.0000003129244,16.0000003129244,0.));
#535=CARTESIAN_POINT('',(-21.0000003129244,16.0000003129244,5.));
#536=CARTESIAN_POINT('',(-16.0000003129244,21.0000003129244,5.));
#537=CARTESIAN_POINT('Origin',(-16.0000003129244,16.0000003129244,5.));
#538=CARTESIAN_POINT('',(-16.0000003129244,21.0000003129244,0.));
#539=CARTESIAN_POINT('',(-16.0000003129244,21.0000003129244,0.));
#540=CARTESIAN_POINT('',(-21.0000003129244,16.0000003129244,0.));
#541=CARTESIAN_POINT('Origin',(-16.0000003129244,16.0000003129244,0.));
#542=CARTESIAN_POINT('',(-21.0000003129244,16.0000003129244,0.));
#543=CARTESIAN_POINT('Origin',(10.0000001490116,0.,5.));
#544=CARTESIAN_POINT('',(-21.0000003129244,-16.0000003129244,5.));
#545=CARTESIAN_POINT('',(-21.0000003129244,-21.0000003129244,5.));
#546=CARTESIAN_POINT('',(-16.0000003129244,-21.0000003129244,5.));
#547=CARTESIAN_POINT('Origin',(-16.0000003129244,-16.0000003129244,5.));
#548=CARTESIAN_POINT('',(36.0000006109476,-21.0000003129244,5.));
#549=CARTESIAN_POINT('',(21.0000003129244,-21.0000003129244,5.));
#550=CARTESIAN_POINT('',(41.0000006109476,-16.0000003129244,5.));
#551=CARTESIAN_POINT('Origin',(36.0000006109476,-16.0000003129244,5.));
#552=CARTESIAN_POINT('',(41.0000006109476,16.0000003129244,5.));
#553=CARTESIAN_POINT('',(41.0000006109476,21.0000003129244,5.));
#554=CARTESIAN_POINT('',(36.0000006109476,21.0000003129244,5.));
#555=CARTESIAN_POINT('Origin',(36.0000006109476,16.0000003129244,5.));
#556=CARTESIAN_POINT('',(21.0000003129244,21.0000003129244,5.));
#557=CARTESIAN_POINT('',(28.450000461936,-14.9999997764826,5.));
#558=CARTESIAN_POINT('Origin',(31.000000461936,-14.9999997764826,5.));
#559=CARTESIAN_POINT('',(13.95,-15.5,5.));
#560=CARTESIAN_POINT('Origin',(15.5,-15.5,5.));
#561=CARTESIAN_POINT('',(-17.05,-15.5,5.));
#562=CARTESIAN_POINT('Origin',(-15.5,-15.5,5.));
#563=CARTESIAN_POINT('',(-11.05,-2.22044604925031E-15,5.));
#564=CARTESIAN_POINT('Origin',(0.,0.,5.));
#565=CARTESIAN_POINT('',(13.95,15.5,5.));
#566=CARTESIAN_POINT('Origin',(15.5,15.5,5.));
#567=CARTESIAN_POINT('',(28.450000461936,2.23517417907715E-7,5.));
#568=CARTESIAN_POINT('Origin',(31.000000461936,2.23517417907715E-7,5.));
#569=CARTESIAN_POINT('',(-17.05,15.5,5.));
#570=CARTESIAN_POINT('Origin',(-15.5,15.5,5.));
#571=CARTESIAN_POINT('',(28.450000461936,15.0000002235174,5.));
#572=CARTESIAN_POINT('Origin',(31.000000461936,15.0000002235174,5.));
#573=CARTESIAN_POINT('Origin',(-21.0000003129244,21.0000003129244,0.));
#574=CARTESIAN_POINT('',(-21.0000003129244,-16.0000003129244,0.));
#575=CARTESIAN_POINT('',(-21.0000003129244,-21.0000003129244,0.));
#576=CARTESIAN_POINT('',(-21.0000003129244,-16.0000003129244,0.));
#577=CARTESIAN_POINT('Origin',(-16.0000003129244,-16.0000003129244,0.));
#578=CARTESIAN_POINT('',(-16.0000003129244,-21.0000003129244,0.));
#579=CARTESIAN_POINT('Origin',(-16.0000003129244,-16.0000003129244,0.));
#580=CARTESIAN_POINT('',(-16.0000003129244,-21.0000003129244,0.));
#581=CARTESIAN_POINT('Origin',(36.0000006109476,16.0000003129244,0.));
#582=CARTESIAN_POINT('',(41.0000006109476,16.0000003129244,0.));
#583=CARTESIAN_POINT('',(41.0000006109476,16.0000003129244,0.));
#584=CARTESIAN_POINT('',(36.0000006109476,21.0000003129244,0.));
#585=CARTESIAN_POINT('Origin',(36.0000006109476,16.0000003129244,0.));
#586=CARTESIAN_POINT('',(36.0000006109476,21.0000003129244,0.));
#587=CARTESIAN_POINT('Origin',(41.0000006109476,-21.0000003129244,0.));
#588=CARTESIAN_POINT('',(41.0000006109476,-16.0000003129244,0.));
#589=CARTESIAN_POINT('',(41.0000006109476,-16.0000003129244,0.));
#590=CARTESIAN_POINT('',(41.0000006109476,21.0000003129244,0.));
#591=CARTESIAN_POINT('Origin',(36.0000006109476,-16.0000003129244,0.));
#592=CARTESIAN_POINT('',(36.0000006109476,-21.0000003129244,0.));
#593=CARTESIAN_POINT('',(36.0000006109476,-21.0000003129244,0.));
#594=CARTESIAN_POINT('Origin',(36.0000006109476,-16.0000003129244,0.));
#595=CARTESIAN_POINT('Origin',(31.000000461936,15.0000002235174,0.));
#596=CARTESIAN_POINT('',(28.450000461936,15.0000002235174,0.));
#597=CARTESIAN_POINT('',(28.450000461936,15.0000002235174,0.));
#598=CARTESIAN_POINT('Origin',(31.000000461936,15.0000002235174,0.));
#599=CARTESIAN_POINT('Origin',(-15.5,15.5,0.));
#600=CARTESIAN_POINT('',(-17.05,15.5,0.));
#601=CARTESIAN_POINT('',(-17.05,15.5,0.));
#602=CARTESIAN_POINT('Origin',(-15.5,15.5,0.));
#603=CARTESIAN_POINT('Origin',(31.000000461936,2.23517417907715E-7,0.));
#604=CARTESIAN_POINT('',(28.450000461936,2.2351741759543E-7,0.));
#605=CARTESIAN_POINT('',(28.450000461936,2.2351741759543E-7,0.));
#606=CARTESIAN_POINT('Origin',(31.000000461936,2.23517417907715E-7,0.));
#607=CARTESIAN_POINT('Origin',(15.5,15.5,0.));
#608=CARTESIAN_POINT('',(13.95,15.5,0.));
#609=CARTESIAN_POINT('',(13.95,15.5,0.));
#610=CARTESIAN_POINT('Origin',(15.5,15.5,0.));
#611=CARTESIAN_POINT('Origin',(0.,0.,0.));
#612=CARTESIAN_POINT('',(-11.05,-1.35323471305783E-15,0.));
#613=CARTESIAN_POINT('',(-11.05,-1.35323471305783E-15,0.));
#614=CARTESIAN_POINT('Origin',(0.,0.,0.));
#615=CARTESIAN_POINT('Origin',(-15.5,-15.5,0.));
#616=CARTESIAN_POINT('',(-17.05,-15.5,0.));
#617=CARTESIAN_POINT('',(-17.05,-15.5,0.));
#618=CARTESIAN_POINT('Origin',(-15.5,-15.5,0.));
#619=CARTESIAN_POINT('Origin',(15.5,-15.5,0.));
#620=CARTESIAN_POINT('',(13.95,-15.5,0.));
#621=CARTESIAN_POINT('',(13.95,-15.5,0.));
#622=CARTESIAN_POINT('Origin',(15.5,-15.5,0.));
#623=CARTESIAN_POINT('Origin',(31.000000461936,-14.9999997764826,0.));
#624=CARTESIAN_POINT('',(28.450000461936,-14.9999997764826,0.));
#625=CARTESIAN_POINT('',(28.450000461936,-14.9999997764826,0.));
#626=CARTESIAN_POINT('Origin',(31.000000461936,-14.9999997764826,0.));
#627=CARTESIAN_POINT('Origin',(-21.0000003129244,-21.0000003129244,0.));
#628=CARTESIAN_POINT('',(21.0000003129244,-21.0000003129244,0.));
#629=CARTESIAN_POINT('Origin',(41.0000006109476,21.0000003129244,0.));
#630=CARTESIAN_POINT('',(21.0000003129244,21.0000003129244,0.));
#631=CARTESIAN_POINT('Origin',(10.0000001490116,0.,0.));
#632=UNCERTAINTY_MEASURE_WITH_UNIT(LENGTH_MEASURE(0.01),#636,
'DISTANCE_ACCURACY_VALUE',
'Maximum model space distance between geometric entities at asserted c
onnectivities');
#633=UNCERTAINTY_MEASURE_WITH_UNIT(LENGTH_MEASURE(0.01),#636,
'DISTANCE_ACCURACY_VALUE',
'Maximum model space distance between geometric entities at asserted c
onnectivities');
#634=(
GEOMETRIC_REPRESENTATION_CONTEXT(3)
GLOBAL_UNCERTAINTY_ASSIGNED_CONTEXT((#632))
GLOBAL_UNIT_ASSIGNED_CONTEXT((#636,#638,#639))
REPRESENTATION_CONTEXT('','3D')
);
#635=(
GEOMETRIC_REPRESENTATION_CONTEXT(3)
GLOBAL_UNCERTAINTY_ASSIGNED_CONTEXT((#633))
GLOBAL_UNIT_ASSIGNED_CONTEXT((#636,#638,#639))
REPRESENTATION_CONTEXT('','3D')
);
#636=(
LENGTH_UNIT()
NAMED_UNIT(*)
SI_UNIT(.MILLI.,.METRE.)
);
#637=(
LENGTH_UNIT()
NAMED_UNIT(*)
SI_UNIT($,.METRE.)
);
#638=(
NAMED_UNIT(*)
PLANE_ANGLE_UNIT()
SI_UNIT($,.RADIAN.)
);
#639=(
NAMED_UNIT(*)
SI_UNIT($,.STERADIAN.)
SOLID_ANGLE_UNIT()
);
#640=SHAPE_DEFINITION_REPRESENTATION(#641,#642);
#641=PRODUCT_DEFINITION_SHAPE('',$,#644);
#642=SHAPE_REPRESENTATION('',(#380),#634);
#643=PRODUCT_DEFINITION_CONTEXT('part definition',#648,'design');
#644=PRODUCT_DEFINITION('Nema15-2020-plate','Nema15-2020-plate v1',#645,
#643);
#645=PRODUCT_DEFINITION_FORMATION('',$,#650);
#646=PRODUCT_RELATED_PRODUCT_CATEGORY('Nema15-2020-plate v1',
'Nema15-2020-plate v1',(#650));
#647=APPLICATION_PROTOCOL_DEFINITION('international standard',
'automotive_design',2009,#648);
#648=APPLICATION_CONTEXT(
'Core Data for Automotive Mechanical Design Process');
#649=PRODUCT_CONTEXT('part definition',#648,'mechanical');
#650=PRODUCT('Nema15-2020-plate','Nema15-2020-plate v1',$,(#649));
#651=PRESENTATION_STYLE_ASSIGNMENT((#652));
#652=SURFACE_STYLE_USAGE(.BOTH.,#653);
#653=SURFACE_SIDE_STYLE('',(#654));
#654=SURFACE_STYLE_FILL_AREA(#655);
#655=FILL_AREA_STYLE('Plastic - Glossy (Grey)',(#656));
#656=FILL_AREA_STYLE_COLOUR('Plastic - Glossy (Grey)',#657);
#657=COLOUR_RGB('Plastic - Glossy (Grey)',0.701960784313725,0.701960784313725,
0.701960784313725);
ENDSEC;
END-ISO-10303-21;
