ISO-10303-21;
HEADER;
/* Generated by software containing ST-Developer
 * from STEP Tools, Inc. (www.steptools.com) 
 */

FILE_DESCRIPTION(
/* description */ (''),
/* implementation_level */ '2;1');

FILE_NAME(
/* name */ '/Users/Twmaster/Downloads/2020-2040-corner.step',
/* time_stamp */ '2017-09-15T00:13:37-05:00',
/* author */ (''),
/* organization */ (''),
/* preprocessor_version */ 'ST-DEVELOPER v16.13',
/* originating_system */ 'Autodesk Translation Framework v6.1.1.50',
/* authorisation */ '');

FILE_SCHEMA (('AUTOMOTIVE_DESIGN { 1 0 10303 214 3 1 1 }'));
ENDSEC;

DATA;
#10=MECHANICAL_DESIGN_GEOMETRIC_PRESENTATION_REPRESENTATION('',(#13,#14),
#226);
#11=SHAPE_REPRESENTATION_RELATIONSHIP('SRR','None',#232,#12);
#12=ADVANCED_BREP_SHAPE_REPRESENTATION('',(#15,#16),#225);
#13=STYLED_ITEM('',(#242),#15);
#14=STYLED_ITEM('',(#243),#16);
#15=MANIFOLD_SOLID_BREP('Body1',#127);
#16=MANIFOLD_SOLID_BREP('Body2',#128);
#17=PLANE('',#135);
#18=PLANE('',#139);
#19=PLANE('',#145);
#20=PLANE('',#149);
#21=CONICAL_SURFACE('',#133,11.1236406745636,0.786174419770815);
#22=CONICAL_SURFACE('',#141,11.1263575740533,0.784621907024082);
#23=CONICAL_SURFACE('',#147,2.50001424361219,0.00337562374217803);
#24=FACE_BOUND('',#45,.T.);
#25=FACE_BOUND('',#47,.T.);
#26=FACE_BOUND('',#49,.T.);
#27=FACE_BOUND('',#51,.T.);
#28=FACE_BOUND('',#53,.T.);
#29=FACE_BOUND('',#55,.T.);
#30=FACE_BOUND('',#57,.T.);
#31=FACE_BOUND('',#59,.T.);
#32=FACE_BOUND('',#61,.T.);
#33=FACE_BOUND('',#63,.T.);
#34=FACE_OUTER_BOUND('',#44,.T.);
#35=FACE_OUTER_BOUND('',#46,.T.);
#36=FACE_OUTER_BOUND('',#48,.T.);
#37=FACE_OUTER_BOUND('',#50,.T.);
#38=FACE_OUTER_BOUND('',#52,.T.);
#39=FACE_OUTER_BOUND('',#54,.T.);
#40=FACE_OUTER_BOUND('',#56,.T.);
#41=FACE_OUTER_BOUND('',#58,.T.);
#42=FACE_OUTER_BOUND('',#60,.T.);
#43=FACE_OUTER_BOUND('',#62,.T.);
#44=EDGE_LOOP('',(#94));
#45=EDGE_LOOP('',(#95));
#46=EDGE_LOOP('',(#96));
#47=EDGE_LOOP('',(#97));
#48=EDGE_LOOP('',(#98));
#49=EDGE_LOOP('',(#99));
#50=EDGE_LOOP('',(#100));
#51=EDGE_LOOP('',(#101));
#52=EDGE_LOOP('',(#102));
#53=EDGE_LOOP('',(#103));
#54=EDGE_LOOP('',(#104));
#55=EDGE_LOOP('',(#105));
#56=EDGE_LOOP('',(#106));
#57=EDGE_LOOP('',(#107));
#58=EDGE_LOOP('',(#108));
#59=EDGE_LOOP('',(#109));
#60=EDGE_LOOP('',(#110));
#61=EDGE_LOOP('',(#111));
#62=EDGE_LOOP('',(#112));
#63=EDGE_LOOP('',(#113));
#64=CIRCLE('',#131,12.0000001788139);
#65=CIRCLE('',#132,12.0000001788139);
#66=CIRCLE('',#134,10.2472811703133);
#67=CIRCLE('',#136,8.);
#68=CIRCLE('',#138,8.);
#69=CIRCLE('',#140,10.2527149692926);
#70=CIRCLE('',#143,8.);
#71=CIRCLE('',#144,8.);
#72=CIRCLE('',#146,2.51858024471306);
#73=CIRCLE('',#148,2.48144824251131);
#74=VERTEX_POINT('',#194);
#75=VERTEX_POINT('',#196);
#76=VERTEX_POINT('',#199);
#77=VERTEX_POINT('',#202);
#78=VERTEX_POINT('',#205);
#79=VERTEX_POINT('',#208);
#80=VERTEX_POINT('',#212);
#81=VERTEX_POINT('',#214);
#82=VERTEX_POINT('',#217);
#83=VERTEX_POINT('',#220);
#84=EDGE_CURVE('',#74,#74,#64,.T.);
#85=EDGE_CURVE('',#75,#75,#65,.T.);
#86=EDGE_CURVE('',#76,#76,#66,.T.);
#87=EDGE_CURVE('',#77,#77,#67,.T.);
#88=EDGE_CURVE('',#78,#78,#68,.T.);
#89=EDGE_CURVE('',#79,#79,#69,.T.);
#90=EDGE_CURVE('',#80,#80,#70,.T.);
#91=EDGE_CURVE('',#81,#81,#71,.T.);
#92=EDGE_CURVE('',#82,#82,#72,.T.);
#93=EDGE_CURVE('',#83,#83,#73,.T.);
#94=ORIENTED_EDGE('',*,*,#84,.T.);
#95=ORIENTED_EDGE('',*,*,#85,.F.);
#96=ORIENTED_EDGE('',*,*,#85,.T.);
#97=ORIENTED_EDGE('',*,*,#86,.F.);
#98=ORIENTED_EDGE('',*,*,#86,.T.);
#99=ORIENTED_EDGE('',*,*,#87,.F.);
#100=ORIENTED_EDGE('',*,*,#87,.T.);
#101=ORIENTED_EDGE('',*,*,#88,.F.);
#102=ORIENTED_EDGE('',*,*,#89,.F.);
#103=ORIENTED_EDGE('',*,*,#88,.T.);
#104=ORIENTED_EDGE('',*,*,#89,.T.);
#105=ORIENTED_EDGE('',*,*,#84,.F.);
#106=ORIENTED_EDGE('',*,*,#90,.T.);
#107=ORIENTED_EDGE('',*,*,#91,.F.);
#108=ORIENTED_EDGE('',*,*,#91,.T.);
#109=ORIENTED_EDGE('',*,*,#92,.F.);
#110=ORIENTED_EDGE('',*,*,#92,.T.);
#111=ORIENTED_EDGE('',*,*,#93,.F.);
#112=ORIENTED_EDGE('',*,*,#90,.F.);
#113=ORIENTED_EDGE('',*,*,#93,.T.);
#114=CYLINDRICAL_SURFACE('',#130,12.0000001788139);
#115=CYLINDRICAL_SURFACE('',#137,8.);
#116=CYLINDRICAL_SURFACE('',#142,8.);
#117=ADVANCED_FACE('',(#34,#24),#114,.T.);
#118=ADVANCED_FACE('',(#35,#25),#21,.T.);
#119=ADVANCED_FACE('',(#36,#26),#17,.T.);
#120=ADVANCED_FACE('',(#37,#27),#115,.F.);
#121=ADVANCED_FACE('',(#38,#28),#18,.T.);
#122=ADVANCED_FACE('',(#39,#29),#22,.T.);
#123=ADVANCED_FACE('',(#40,#30),#116,.T.);
#124=ADVANCED_FACE('',(#41,#31),#19,.T.);
#125=ADVANCED_FACE('',(#42,#32),#23,.F.);
#126=ADVANCED_FACE('',(#43,#33),#20,.T.);
#127=CLOSED_SHELL('',(#117,#118,#119,#120,#121,#122));
#128=CLOSED_SHELL('',(#123,#124,#125,#126));
#129=AXIS2_PLACEMENT_3D('placement',#192,#150,#151);
#130=AXIS2_PLACEMENT_3D('',#193,#152,#153);
#131=AXIS2_PLACEMENT_3D('',#195,#154,#155);
#132=AXIS2_PLACEMENT_3D('',#197,#156,#157);
#133=AXIS2_PLACEMENT_3D('',#198,#158,#159);
#134=AXIS2_PLACEMENT_3D('',#200,#160,#161);
#135=AXIS2_PLACEMENT_3D('',#201,#162,#163);
#136=AXIS2_PLACEMENT_3D('',#203,#164,#165);
#137=AXIS2_PLACEMENT_3D('',#204,#166,#167);
#138=AXIS2_PLACEMENT_3D('',#206,#168,#169);
#139=AXIS2_PLACEMENT_3D('',#207,#170,#171);
#140=AXIS2_PLACEMENT_3D('',#209,#172,#173);
#141=AXIS2_PLACEMENT_3D('',#210,#174,#175);
#142=AXIS2_PLACEMENT_3D('',#211,#176,#177);
#143=AXIS2_PLACEMENT_3D('',#213,#178,#179);
#144=AXIS2_PLACEMENT_3D('',#215,#180,#181);
#145=AXIS2_PLACEMENT_3D('',#216,#182,#183);
#146=AXIS2_PLACEMENT_3D('',#218,#184,#185);
#147=AXIS2_PLACEMENT_3D('',#219,#186,#187);
#148=AXIS2_PLACEMENT_3D('',#221,#188,#189);
#149=AXIS2_PLACEMENT_3D('',#222,#190,#191);
#150=DIRECTION('axis',(0.,0.,1.));
#151=DIRECTION('refdir',(1.,0.,0.));
#152=DIRECTION('center_axis',(0.,-1.,0.));
#153=DIRECTION('ref_axis',(1.,0.,0.));
#154=DIRECTION('center_axis',(0.,-1.,0.));
#155=DIRECTION('ref_axis',(1.,0.,0.));
#156=DIRECTION('center_axis',(0.,-1.,0.));
#157=DIRECTION('ref_axis',(1.,0.,0.));
#158=DIRECTION('center_axis',(0.,1.,0.));
#159=DIRECTION('ref_axis',(1.,0.,0.));
#160=DIRECTION('center_axis',(0.,-1.,0.));
#161=DIRECTION('ref_axis',(1.,0.,0.));
#162=DIRECTION('center_axis',(0.,-1.,0.));
#163=DIRECTION('ref_axis',(0.,0.,-1.));
#164=DIRECTION('center_axis',(0.,-1.,0.));
#165=DIRECTION('ref_axis',(1.,0.,0.));
#166=DIRECTION('center_axis',(0.,-1.,0.));
#167=DIRECTION('ref_axis',(1.,0.,0.));
#168=DIRECTION('center_axis',(0.,-1.,0.));
#169=DIRECTION('ref_axis',(1.,0.,0.));
#170=DIRECTION('center_axis',(0.,1.,0.));
#171=DIRECTION('ref_axis',(0.,0.,1.));
#172=DIRECTION('center_axis',(0.,-1.,0.));
#173=DIRECTION('ref_axis',(1.,0.,0.));
#174=DIRECTION('center_axis',(0.,-1.,0.));
#175=DIRECTION('ref_axis',(1.,0.,0.));
#176=DIRECTION('center_axis',(0.,-1.,0.));
#177=DIRECTION('ref_axis',(1.,0.,0.));
#178=DIRECTION('center_axis',(0.,-1.,0.));
#179=DIRECTION('ref_axis',(1.,0.,0.));
#180=DIRECTION('center_axis',(0.,-1.,0.));
#181=DIRECTION('ref_axis',(1.,0.,0.));
#182=DIRECTION('center_axis',(0.,-1.,0.));
#183=DIRECTION('ref_axis',(0.,0.,-1.));
#184=DIRECTION('center_axis',(0.,-1.,0.));
#185=DIRECTION('ref_axis',(1.,0.,0.));
#186=DIRECTION('center_axis',(0.,-1.,0.));
#187=DIRECTION('ref_axis',(1.,0.,0.));
#188=DIRECTION('center_axis',(0.,-1.,0.));
#189=DIRECTION('ref_axis',(1.,0.,0.));
#190=DIRECTION('center_axis',(0.,1.,0.));
#191=DIRECTION('ref_axis',(0.,0.,1.));
#192=CARTESIAN_POINT('',(0.,0.,0.));
#193=CARTESIAN_POINT('Origin',(0.,0.,0.));
#194=CARTESIAN_POINT('',(12.0000001788139,3.75,0.));
#195=CARTESIAN_POINT('Origin',(0.,3.75,0.));
#196=CARTESIAN_POINT('',(12.0000001788139,-3.75,0.));
#197=CARTESIAN_POINT('Origin',(0.,-3.75,0.));
#198=CARTESIAN_POINT('Origin',(0.,-4.625,0.));
#199=CARTESIAN_POINT('',(10.2472811703133,-5.5,0.));
#200=CARTESIAN_POINT('Origin',(0.,-5.5,0.));
#201=CARTESIAN_POINT('Origin',(8.,-5.5,0.));
#202=CARTESIAN_POINT('',(8.,-5.5,0.));
#203=CARTESIAN_POINT('Origin',(0.,-5.5,0.));
#204=CARTESIAN_POINT('Origin',(0.,0.,0.));
#205=CARTESIAN_POINT('',(8.,5.5,0.));
#206=CARTESIAN_POINT('Origin',(0.,5.5,0.));
#207=CARTESIAN_POINT('Origin',(10.2527149692926,5.5,0.));
#208=CARTESIAN_POINT('',(10.2527149692926,5.5,0.));
#209=CARTESIAN_POINT('Origin',(0.,5.5,0.));
#210=CARTESIAN_POINT('Origin',(0.,4.625,0.));
#211=CARTESIAN_POINT('Origin',(0.,0.,0.));
#212=CARTESIAN_POINT('',(8.,5.5,0.));
#213=CARTESIAN_POINT('Origin',(0.,5.5,0.));
#214=CARTESIAN_POINT('',(8.,-5.5,0.));
#215=CARTESIAN_POINT('Origin',(0.,-5.5,0.));
#216=CARTESIAN_POINT('Origin',(2.51858024471306,-5.5,0.));
#217=CARTESIAN_POINT('',(2.51858024471306,-5.5,0.));
#218=CARTESIAN_POINT('Origin',(0.,-5.5,0.));
#219=CARTESIAN_POINT('Origin',(0.,-1.11022302462516E-15,0.));
#220=CARTESIAN_POINT('',(2.48144824251131,5.5,0.));
#221=CARTESIAN_POINT('Origin',(0.,5.5,0.));
#222=CARTESIAN_POINT('Origin',(8.,5.5,0.));
#223=UNCERTAINTY_MEASURE_WITH_UNIT(LENGTH_MEASURE(0.01),#229,
'DISTANCE_ACCURACY_VALUE',
'Maximum model space distance between geometric entities at asserted c
onnectivities');
#224=UNCERTAINTY_MEASURE_WITH_UNIT(LENGTH_MEASURE(0.01),#229,
'DISTANCE_ACCURACY_VALUE',
'Maximum model space distance between geometric entities at asserted c
onnectivities');
#225=(
GEOMETRIC_REPRESENTATION_CONTEXT(3)
GLOBAL_UNCERTAINTY_ASSIGNED_CONTEXT((#223))
GLOBAL_UNIT_ASSIGNED_CONTEXT((#229,#228,#227))
REPRESENTATION_CONTEXT('','3D')
);
#226=(
GEOMETRIC_REPRESENTATION_CONTEXT(3)
GLOBAL_UNCERTAINTY_ASSIGNED_CONTEXT((#224))
GLOBAL_UNIT_ASSIGNED_CONTEXT((#229,#228,#227))
REPRESENTATION_CONTEXT('','3D')
);
#227=(
NAMED_UNIT(*)
SI_UNIT($,.STERADIAN.)
SOLID_ANGLE_UNIT()
);
#228=(
NAMED_UNIT(*)
PLANE_ANGLE_UNIT()
SI_UNIT($,.RADIAN.)
);
#229=(
LENGTH_UNIT()
NAMED_UNIT(*)
SI_UNIT(.MILLI.,.METRE.)
);
#230=SHAPE_DEFINITION_REPRESENTATION(#231,#232);
#231=PRODUCT_DEFINITION_SHAPE('',$,#234);
#232=SHAPE_REPRESENTATION('',(#129),#225);
#233=PRODUCT_DEFINITION_CONTEXT('part definition',#238,'design');
#234=PRODUCT_DEFINITION('2020-2040-corner v1','2020-2040-corner v1',#235,
#233);
#235=PRODUCT_DEFINITION_FORMATION('',$,#240);
#236=PRODUCT_RELATED_PRODUCT_CATEGORY('2020-2040-corner v1',
'2020-2040-corner v1',(#240));
#237=APPLICATION_PROTOCOL_DEFINITION('international standard',
'automotive_design',2009,#238);
#238=APPLICATION_CONTEXT(
'Core Data for Automotive Mechanical Design Process');
#239=PRODUCT_CONTEXT('part definition',#238,'mechanical');
#240=PRODUCT('2020-2040-corner v1','2020-2040-corner v1',$,(#239));
#241=PRESENTATION_STYLE_ASSIGNMENT((#244));
#242=PRESENTATION_STYLE_ASSIGNMENT((#245));
#243=PRESENTATION_STYLE_ASSIGNMENT((#246));
#244=SURFACE_STYLE_USAGE(.BOTH.,#247);
#245=SURFACE_STYLE_USAGE(.BOTH.,#248);
#246=SURFACE_STYLE_USAGE(.BOTH.,#249);
#247=SURFACE_SIDE_STYLE('',(#250));
#248=SURFACE_SIDE_STYLE('',(#251));
#249=SURFACE_SIDE_STYLE('',(#252));
#250=SURFACE_STYLE_FILL_AREA(#253);
#251=SURFACE_STYLE_FILL_AREA(#254);
#252=SURFACE_STYLE_FILL_AREA(#255);
#253=FILL_AREA_STYLE('Steel - Satin',(#256));
#254=FILL_AREA_STYLE('Plastic - Glossy (Black)',(#257));
#255=FILL_AREA_STYLE('Aluminum - Satin',(#258));
#256=FILL_AREA_STYLE_COLOUR('Steel - Satin',#259);
#257=FILL_AREA_STYLE_COLOUR('Plastic - Glossy (Black)',#260);
#258=FILL_AREA_STYLE_COLOUR('Aluminum - Satin',#261);
#259=COLOUR_RGB('Steel - Satin',0.627450980392157,0.627450980392157,0.627450980392157);
#260=COLOUR_RGB('Plastic - Glossy (Black)',0.0980392156862745,0.0980392156862745,
0.0980392156862745);
#261=COLOUR_RGB('Aluminum - Satin',0.96078431372549,0.96078431372549,0.964705882352941);
ENDSEC;
END-ISO-10303-21;
